# xmcd
#
# Track frame offsets: 
#        150
#        17297
#        33362
#        47102
#        71788
#        84355
#        100713
#        120313
#        146294
#        163354
#        182638
#        199979
#        215820
#
# Disc length: 3133 seconds
#
# Revision: 0
# Processed by: cddbd v1.5.2PL0 Copyright (c) Steve Scherf et al.
# Submitted via: ExactAudioCopyFreeDBPlugin 1.0
#
DISCID=b00c3b0d
DTITLE=PP Arnold - The Turning Tide
DYEAR=1971
DGENRE=Soul
TTITLE0=Medicated Goo
TTITLE1=Born
TTITLE2=If This Were My World
TTITLE3=High And Windy Mountain
TTITLE4=Spinning Wheel
TTITLE5=Bury Me Down By The River
TTITLE6=Children Of The Last War
TTITLE7=Brand New Day
TTITLE8=The Turning Tide
TTITLE9=You've Made Me So Very Happy
TTITLE10=Give A Hand, Take A Hand
TTITLE11=Happiness
TTITLE12=You Can't Always Get What You Want
EXTD=
EXTT0=
EXTT1=
EXTT2=
EXTT3=
EXTT4=
EXTT5=
EXTT6=
EXTT7=
EXTT8=
EXTT9=
EXTT10=
EXTT11=
EXTT12=
PLAYORDER=
